# xmcd CD database file generated by OrangeCD 6.4
#
# Track frame offsets:
#	150
#	23409
#	54426
#	76838
#	95612
#	112153
#	128300
#	145358
#	164421
#	180319
#	201157
#	217208
#	230620
#	249084
#	278782
#	298345
#
# Disc length: 4262 seconds
#
# Revision: 2
# Processed by: cddbd v1.5.2PL0 Copyright (c) Steve Scherf et al.
# Submitted via: OrangeCD 6.4
#
DISCID=e210a410
DTITLE=The Cure - Bestival Live 2011
DYEAR=2011
DGENRE=Rock
TTITLE0=Plainsong
TTITLE1=Open
TTITLE2=Fascination Street
TTITLE3=A Night Like This
TTITLE4=The End Of The World
TTITLE5=Lovesong
TTITLE6=Just Like Heaven
TTITLE7=The Only One
TTITLE8=The Walk
TTITLE9=Push
TTITLE10=Friday I'm In Love
TTITLE11=Inbetween Days
TTITLE12=Play For Today
TTITLE13=A Forest
TTITLE14=Primary
TTITLE15=Shake Dog Snake
EXTD=
EXTT0=
EXTT1=
EXTT2=
EXTT3=
EXTT4=
EXTT5=
EXTT6=
EXTT7=
EXTT8=
EXTT9=
EXTT10=
EXTT11=
EXTT12=
EXTT13=
EXTT14=
EXTT15=
PLAYORDER=
